<svg id="Layer_1" data-name="Layer 1" xmlns="http://www.w3.org/2000/svg" viewBox="0 0 219.79 192.17"><defs><style>.cls-1{fill:#fff;stroke:#000;stroke-linecap:round;stroke-linejoin:round;stroke-width:2px;}</style></defs><polygon class="cls-1" points="144.3 51.51 107.06 56.91 107.06 15.03 144.3 9.64 144.3 51.51"/><polygon class="cls-1" points="107.06 56.91 84.12 48.27 84.12 6.4 107.06 15.03 107.06 56.91"/><polygon class="cls-1" points="84.12 6.4 121.36 1 144.3 9.64 107.06 15.03 84.12 6.4"/><polygon class="cls-1" points="144.3 93.22 107.06 98.62 107.06 56.75 144.3 51.35 144.3 93.22"/><polygon class="cls-1" points="107.06 98.62 84.12 89.99 84.12 48.11 107.06 56.75 107.06 98.62"/><polygon class="cls-1" points="144.3 135.12 107.06 140.52 107.06 98.65 144.3 93.25 144.3 135.12"/><polygon class="cls-1" points="107.06 140.52 84.12 131.88 84.12 90.01 107.06 98.65 107.06 140.52"/><polygon class="cls-1" points="107.06 182.35 84.12 173.71 84.12 131.84 107.06 140.47 107.06 182.35"/><polygon class="cls-1" points="167.24 185.77 130 191.17 130 149.29 167.24 143.9 167.24 185.77"/><polygon class="cls-1" points="130 191.17 107.06 182.53 107.06 140.66 130 149.29 130 191.17"/><polygon class="cls-1" points="107.06 140.66 144.3 135.26 167.24 143.9 130 149.29 107.06 140.66"/><polygon class="cls-1" points="84.12 173.51 46.88 178.91 46.88 137.03 84.12 131.64 84.12 173.51"/><polygon class="cls-1" points="46.88 178.91 23.94 170.28 23.94 128.4 46.88 137.03 46.88 178.91"/><polygon class="cls-1" points="23.94 128.4 61.18 123 84.12 131.64 46.88 137.03 23.94 128.4"/><polygon class="cls-1" points="23.94 170.23 1 161.59 1 119.72 23.94 128.35 23.94 170.23"/><polygon class="cls-1" points="1 119.72 38.24 114.32 61.18 122.96 23.94 128.35 1 119.72"/><polygon class="cls-1" points="84.12 89.74 61.18 81.1 61.18 39.23 84.12 47.86 84.12 89.74"/><polygon class="cls-1" points="84.12 131.64 61.18 123 61.18 81.13 84.12 89.76 84.12 131.64"/><polygon class="cls-1" points="61.18 81.1 38.24 72.47 38.24 30.59 61.18 39.23 61.18 81.1"/><polygon class="cls-1" points="61.18 123 38.24 114.37 38.24 72.49 61.18 81.13 61.18 123"/><polygon class="cls-1" points="61.18 39.07 84.12 35.75 84.12 35.75 84.12 47.71 61.18 39.07"/><polygon class="cls-1" points="38.24 30.59 75.48 25.19 84.12 28.45 84.14 35.9 61.18 39.23 38.24 30.59"/><polygon class="cls-1" points="181.55 129.86 144.3 135.26 144.3 93.38 181.55 87.99 181.55 129.86"/><polygon class="cls-1" points="144.3 81.42 158.61 79.35 181.55 87.99 144.3 93.38 144.3 81.42"/><polygon class="cls-1" points="218.79 166.45 181.55 171.85 181.55 129.97 218.79 124.58 218.79 166.45"/><polygon class="cls-1" points="181.55 118.01 195.85 115.94 218.79 124.58 181.55 129.97 181.55 118.01"/><polygon class="cls-1" points="181.55 171.85 167.76 173.85 167.24 143.9 144.3 135.37 181.55 129.97 181.55 171.85"/></svg>