<svg width="1223" height="300" viewBox="0 0 1223 300" fill="none" xmlns="http://www.w3.org/2000/svg">
<g clip-path="url(#clip0_3857_3382)">
<rect width="296" height="300" fill="white"/>
<rect width="296" height="300" stroke="black" stroke-width="1.679"/>
<path d="M216.041 198.748L238.319 198.787L238.422 151.925L216.144 151.887L216.041 198.748Z" fill="white" stroke="black" stroke-width="2.25" stroke-linejoin="round"/>
<path d="M216.04 198.749L216.143 151.888L125.216 151.694L125.113 198.569L216.04 198.749Z" fill="white" stroke="black" stroke-width="2.25" stroke-linejoin="round"/>
<path d="M238.312 198.787L265.808 198.852L265.899 151.99L238.416 151.926L238.312 198.787Z" fill="#9EA8A3" stroke="black" stroke-width="2.25" stroke-linejoin="round"/>
<path d="M103.117 60.7285L84.7949 81.2151L102.936 151.655L125.214 151.694L125.394 60.7801L103.117 60.7285Z" fill="white" stroke="black" stroke-width="2.25" stroke-linejoin="round"/>
<path d="M195.437 239.272L216.001 221.027L216.04 198.75L125.113 198.569L125.074 220.847L195.437 239.272Z" fill="white" stroke="black" stroke-width="2.25" stroke-linejoin="round"/>
<path d="M125.215 151.694L102.937 151.655L102.834 198.517L125.112 198.568L125.215 151.694Z" fill="white" stroke="black" stroke-width="2.25" stroke-linejoin="round"/>
<path d="M30.0996 198.375L102.833 198.517L102.937 151.656L30.2027 151.501L30.0996 198.375Z" fill="white" stroke="black" stroke-width="2.25" stroke-linejoin="round"/>
<path d="M107.385 192.849H121.957L114.677 184.268L107.385 192.849Z" stroke="black" stroke-width="2.25" stroke-linejoin="round"/>
<path d="M104.118 67.0303V80.7653H92.1738L104.118 67.0303Z" stroke="black" stroke-width="2.25" stroke-linejoin="round"/>
<rect x="296" width="232" height="300" fill="white"/>
<rect x="296" width="232" height="300" stroke="black" stroke-width="1.679"/>
<path d="M356.877 143.819L416.057 131.359L433.064 152.777L433.477 176.971L357.301 168.014L356.877 143.819Z" fill="white" stroke="black" stroke-width="2.25" stroke-linejoin="round"/>
<path d="M448.9 124.122L416.056 131.357L433.063 152.775L466.446 146.006L448.9 124.122Z" fill="white" stroke="black" stroke-width="2.25" stroke-linejoin="round"/>
<path d="M433.477 176.971L433.065 152.776L466.447 146.007L466.86 170.202L433.477 176.971Z" fill="#9EA8A3" stroke="black" stroke-width="2.25" stroke-linejoin="round"/>
<path d="M426.941 153.014L416.369 151.745L416.598 139.548L426.941 153.014Z" stroke="black" stroke-width="2.25" stroke-linejoin="round"/>
<path d="M405.86 268L410.072 255.04H412.781L416.993 268H415.04L411.161 256.174H411.647L407.813 268H405.86ZM408.047 265.075V263.311H414.815V265.075H408.047Z" fill="black"/>
<rect x="527" width="232" height="300" fill="white"/>
<rect x="527" width="232" height="300" stroke="black" stroke-width="1.679"/>
<path d="M587.947 167.405L587.993 144.316L606.571 128.938L670.098 160.138L670.041 183.227L587.947 167.405Z" fill="white" stroke="black" stroke-width="2.25" stroke-linejoin="round"/>
<path d="M634.527 116.773L606.574 128.939L670.101 160.138L698.054 147.973L634.527 116.773Z" fill="white" stroke="black" stroke-width="2.25" stroke-linejoin="round"/>
<path d="M670.043 183.227L697.996 171.062L698.053 147.973L670.1 160.138L670.043 183.227Z" fill="white" stroke="black" stroke-width="2.25" stroke-linejoin="round"/>
<path d="M674.506 177.385L681.762 166.119L674.551 162.28L674.506 177.385Z" fill="white" stroke="black" stroke-width="2.25" stroke-linejoin="round"/>
<path d="M637.76 268V255.04H642.854C643.676 255.04 644.366 255.208 644.924 255.544C645.482 255.88 645.902 256.315 646.184 256.849C646.466 257.377 646.607 257.935 646.607 258.523C646.607 259.237 646.43 259.849 646.076 260.359C645.728 260.869 645.257 261.217 644.663 261.403L644.645 260.962C645.473 261.166 646.109 261.565 646.553 262.159C646.997 262.747 647.219 263.434 647.219 264.22C647.219 264.982 647.066 265.645 646.76 266.209C646.46 266.773 646.019 267.214 645.437 267.532C644.861 267.844 644.162 268 643.34 268H637.76ZM639.668 266.209H643.052C643.478 266.209 643.859 266.128 644.195 265.966C644.537 265.804 644.804 265.573 644.996 265.273C645.194 264.967 645.293 264.604 645.293 264.184C645.293 263.794 645.206 263.443 645.032 263.131C644.864 262.813 644.618 262.564 644.294 262.384C643.976 262.198 643.601 262.105 643.169 262.105H639.668V266.209ZM639.668 260.332H642.827C643.175 260.332 643.487 260.263 643.763 260.125C644.045 259.981 644.267 259.777 644.429 259.513C644.597 259.243 644.681 258.919 644.681 258.541C644.681 258.037 644.513 257.623 644.177 257.299C643.841 256.975 643.391 256.813 642.827 256.813H639.668V260.332Z" fill="black"/>
<rect x="758" width="232" height="300" fill="white"/>
<rect x="758" width="232" height="300" stroke="black" stroke-width="1.679"/>
<path d="M929.051 167.405L928.994 144.316L910.427 128.938L846.9 160.138L846.946 183.227L929.051 167.405Z" fill="white" stroke="black" stroke-width="2.25" stroke-linejoin="round"/>
<path d="M882.474 116.773L910.427 128.939L846.9 160.138L818.947 147.973L882.474 116.773Z" fill="white" stroke="black" stroke-width="2.25" stroke-linejoin="round"/>
<path d="M846.946 183.227L818.993 171.062L818.947 147.973L846.9 160.138L846.946 183.227Z" fill="white" stroke="black" stroke-width="2.25" stroke-linejoin="round"/>
<path d="M822.83 168.693L830.086 164.262L822.876 153.589L822.83 168.693Z" fill="white" stroke="black" stroke-width="2.25" stroke-linejoin="round"/>
<path d="M909.311 134.497L918.515 141.582L895.084 142.801L909.311 134.497Z" fill="white" stroke="black" stroke-width="2.25" stroke-linejoin="round"/>
<path d="M874.169 268.27C872.873 268.27 871.769 267.988 870.857 267.424C869.945 266.854 869.246 266.062 868.76 265.048C868.28 264.034 868.04 262.858 868.04 261.52C868.04 260.182 868.28 259.006 868.76 257.992C869.246 256.978 869.945 256.189 870.857 255.625C871.769 255.055 872.873 254.77 874.169 254.77C875.663 254.77 876.899 255.148 877.877 255.904C878.861 256.66 879.545 257.677 879.929 258.955L878.021 259.468C877.769 258.562 877.319 257.851 876.671 257.335C876.029 256.819 875.195 256.561 874.169 256.561C873.251 256.561 872.486 256.768 871.874 257.182C871.262 257.596 870.8 258.175 870.488 258.919C870.182 259.663 870.029 260.53 870.029 261.52C870.023 262.51 870.173 263.377 870.479 264.121C870.791 264.865 871.253 265.444 871.865 265.858C872.483 266.272 873.251 266.479 874.169 266.479C875.195 266.479 876.029 266.221 876.671 265.705C877.319 265.183 877.769 264.472 878.021 263.572L879.929 264.085C879.545 265.363 878.861 266.38 877.877 267.136C876.899 267.892 875.663 268.27 874.169 268.27Z" fill="black"/>
<rect x="989" width="232" height="300" fill="white"/>
<rect x="989" width="232" height="300" stroke="black" stroke-width="1.679"/>
<path d="M1160.23 144.852L1101.3 131.285L1083.9 152.381L1083.02 176.564L1159.36 169.034L1160.23 144.852Z" fill="white" stroke="black" stroke-width="2.25" stroke-linejoin="round"/>
<path d="M1068.59 123.436L1101.3 131.284L1083.9 152.38L1050.65 144.987L1068.59 123.436Z" fill="#9EA8A3" stroke="black" stroke-width="2.25" stroke-linejoin="round"/>
<path d="M1083.02 176.564L1083.9 152.381L1050.65 144.988L1049.77 169.171L1083.02 176.564Z" fill="white" stroke="black" stroke-width="2.25" stroke-linejoin="round"/>
<path d="M1090.28 152.266L1102.04 138.643L1103.89 149.635L1090.28 152.266Z" fill="white" stroke="black" stroke-width="2.25" stroke-linejoin="round"/>
<path d="M1099.76 268V255.04H1103.82C1103.94 255.04 1104.16 255.043 1104.49 255.049C1104.82 255.055 1105.13 255.079 1105.43 255.121C1106.44 255.247 1107.3 255.61 1107.99 256.21C1108.68 256.81 1109.21 257.572 1109.56 258.496C1109.92 259.414 1110.09 260.422 1110.09 261.52C1110.09 262.624 1109.92 263.638 1109.56 264.562C1109.21 265.48 1108.68 266.239 1107.99 266.839C1107.3 267.433 1106.44 267.793 1105.43 267.919C1105.13 267.961 1104.82 267.985 1104.49 267.991C1104.16 267.997 1103.94 268 1103.82 268H1099.76ZM1101.69 266.209H1103.82C1104.02 266.209 1104.27 266.203 1104.55 266.191C1104.83 266.179 1105.08 266.155 1105.3 266.119C1105.96 265.993 1106.49 265.708 1106.9 265.264C1107.31 264.814 1107.61 264.262 1107.81 263.608C1108 262.954 1108.09 262.258 1108.09 261.52C1108.09 260.758 1108 260.053 1107.8 259.405C1107.6 258.751 1107.29 258.205 1106.88 257.767C1106.47 257.323 1105.94 257.041 1105.3 256.921C1105.08 256.879 1104.83 256.855 1104.54 256.849C1104.26 256.837 1104.02 256.831 1103.82 256.831H1101.69V266.209Z" fill="black"/>
</g>
<rect x="0.845" y="0.845" width="1221.31" height="298.31" stroke="black" stroke-width="1.69"/>
<defs>
<clipPath id="clip0_3857_3382">
<rect width="1223" height="300" fill="white"/>
</clipPath>
</defs>
</svg>
